<svg width="1062" height="1018" viewBox="0 0 1062 1018" fill="none" xmlns="http://www.w3.org/2000/svg">
<g clip-path="url(#clip0_21_233)">
<path d="M351.809 574.059C357.134 576.7 363.632 574.57 366.328 569.234C369.034 563.91 366.893 557.378 361.579 554.64C360.004 553.825 322.797 534.048 313.049 475.607C312.255 470.804 308.355 467.121 303.496 466.599C298.53 466.045 294.054 468.848 292.238 473.358C268.658 532.331 313.124 600.107 315.025 602.965C317.111 606.105 320.567 607.8 324.066 607.8C326.131 607.8 328.228 607.203 330.086 605.974C335.074 602.649 336.431 595.911 333.118 590.913C332.847 590.501 314.449 562.366 308.776 529.234C326.654 561.106 350.407 573.352 351.809 574.059Z" fill="#169A33"/>
<path d="M402.264 596.716C408.144 595.542 411.968 589.815 410.795 583.937C409.611 578.058 403.949 574.234 398.005 575.418C376.196 579.776 334.934 603.519 334.934 662.134C334.934 704.666 343.844 734.17 350.723 750.578C326.935 755.197 313.2 770.16 313.2 792.534C313.2 817.723 336.053 836 367.534 836H378.4C396.417 836 407.501 822.493 408.696 820.961C412.391 816.234 411.554 809.399 406.817 805.704C402.09 801.998 395.255 802.857 391.571 807.573C391.516 807.65 385.996 814.268 378.401 814.268H367.534C351.332 814.268 334.934 806.803 334.934 792.534C334.934 787.155 334.934 770.8 367.534 770.8C371.522 770.8 375.173 768.595 377.074 765.084C378.976 761.574 378.781 757.293 376.607 753.956C376.401 753.642 356.666 722.682 356.666 662.133C356.667 607.028 400.46 597.107 402.264 596.716Z" fill="black"/>
<path d="M710.345 750.577C717.224 734.169 726.134 704.666 726.134 662.133C726.134 603.518 684.873 579.774 663.065 575.417C657.175 574.254 651.458 578.046 650.274 583.936C649.1 589.815 652.925 595.542 658.805 596.715C660.674 597.096 704.402 606.485 704.402 662.133C704.402 722.682 684.667 753.641 684.494 753.902C682.277 757.238 682.06 761.53 683.95 765.062C685.841 768.593 689.525 770.8 693.534 770.8C726.134 770.8 726.134 787.155 726.134 792.534C726.134 806.802 709.736 814.268 693.534 814.268H682.668C675.17 814.268 669.649 807.759 669.432 807.498C665.726 802.858 658.956 802.033 654.251 805.705C649.513 809.399 648.676 816.235 652.371 820.962C653.567 822.494 664.651 836.001 682.668 836.001H693.534C725.026 836.001 747.868 817.724 747.868 792.535C747.868 770.16 734.133 755.196 710.345 750.577Z" fill="black"/>
<path d="M597.56 749.893L617.316 631.327C618.304 625.404 614.306 619.809 608.384 618.819C602.44 617.841 596.866 621.83 595.888 627.741L575.665 749.068H574.001C567.992 749.068 563.135 753.936 563.135 759.934C563.135 765.932 567.992 770.8 574.001 770.8H584.868C617.468 770.8 617.468 787.155 617.468 792.534C617.468 806.802 601.07 814.268 584.868 814.268H574.001C556.028 814.268 541.401 799.641 541.401 781.668V629.534C541.401 623.536 536.544 618.668 530.535 618.668C524.526 618.668 519.669 623.536 519.669 629.534V781.668C519.669 799.641 505.042 814.268 487.069 814.268H476.203C460.001 814.268 443.603 806.803 443.603 792.534C443.603 787.155 443.603 770.8 476.203 770.8H487.069C493.078 770.8 497.935 765.932 497.935 759.934C497.935 753.936 493.078 749.068 487.069 749.068H485.406L465.184 627.741C464.217 621.83 458.62 617.841 452.687 618.819C446.765 619.809 442.766 625.404 443.755 631.327L463.512 749.893C437.192 753.534 421.87 768.899 421.87 792.534C421.87 817.723 444.723 836 476.204 836H487.07C504.826 836 520.615 827.438 530.536 814.235C540.455 827.438 556.245 836 574 836H584.866C616.358 836 639.2 817.723 639.2 792.534C639.2 768.899 623.878 753.534 597.56 749.893Z" fill="black"/>
<path d="M801.049 276.943C777.164 229.162 719.625 184 682.668 184C661.684 184 625.574 216.535 607.438 234.269C586.476 216.307 560.96 205.734 530.534 205.734C500.108 205.734 474.592 216.307 453.631 234.27C435.493 216.535 399.384 184 378.4 184C341.442 184 283.903 229.162 260.019 276.943C252.825 291.309 248 310.727 248 325.268C248 355.226 272.374 379.601 302.334 379.601C329.337 379.601 341.421 361.846 351.114 347.577C352.298 345.849 353.472 344.111 354.841 342.165L398.308 276.965C401.644 271.967 400.297 265.217 395.297 261.892C390.277 258.546 383.55 259.903 380.225 264.903L336.922 329.863C335.639 331.678 334.39 333.514 333.14 335.351C323.37 349.738 317.111 357.866 302.333 357.866C284.359 357.866 269.732 343.24 269.732 325.266C269.732 313.976 273.731 298.1 279.458 286.657C300.866 243.831 352.623 205.732 378.399 205.732C387.668 205.732 415.258 227.313 438.263 249.678C397.437 297.144 378.399 376.611 378.399 455.666C378.399 555.998 422.474 596.933 530.533 596.933C638.591 596.933 682.666 555.998 682.666 455.666C682.666 376.6 663.629 297.144 622.802 249.678C645.807 227.313 673.387 205.732 682.666 205.732C708.442 205.732 760.2 243.831 781.619 286.657C787.335 298.1 791.334 313.976 791.334 325.266C791.334 343.24 776.707 357.866 758.734 357.866C743.423 357.866 737.381 349.825 727.188 334.427L680.842 264.903C677.517 259.905 670.769 258.546 665.769 261.892C660.771 265.217 659.424 271.965 662.759 276.965L709.062 346.424C719.364 361.974 731.024 379.6 758.734 379.6C788.693 379.6 813.068 355.226 813.068 325.266C813.068 310.727 808.243 291.309 801.049 276.943ZM660.934 455.666C660.934 543.926 626.802 575.2 530.534 575.2C434.266 575.2 400.134 543.926 400.134 455.666C400.134 342.077 440.46 227.466 530.534 227.466C620.608 227.466 660.934 342.077 660.934 455.666Z" fill="#169A33"/>
<path d="M586.074 505.023C584.216 508.643 576.957 509.957 574 510C561.276 510 548.126 499.166 543.378 486.713C561.243 482.671 574 470.554 574 455.666C574 437.389 554.907 423.066 530.534 423.066C506.16 423.066 487.068 437.389 487.068 455.666C487.068 470.554 499.825 482.67 517.69 486.713C512.952 499.166 499.803 510 487.143 510C484.024 509.957 476.917 508.641 474.929 504.904C472.115 499.601 465.54 497.59 460.238 500.405C454.935 503.219 452.914 509.794 455.738 515.096C464.323 531.267 484.764 531.734 487.068 531.734C503.943 531.734 520.265 522.095 530.534 508.305C540.803 522.095 557.125 531.734 574 531.734C576.325 531.734 596.995 531.256 605.394 514.978C608.144 509.642 606.046 503.09 600.71 500.341C595.375 497.592 588.833 499.676 586.074 505.023ZM530.534 466.534C517.472 466.534 508.8 459.992 508.8 455.668C508.8 451.343 517.472 444.801 530.534 444.801C543.802 444.801 552.268 451.235 552.268 455.668C552.268 460.1 543.802 466.534 530.534 466.534Z" fill="#169A33"/>
<path d="M579.434 379.6C588.421 379.6 595.734 372.287 595.734 363.3C595.734 354.313 588.421 347 579.434 347C570.447 347 563.134 354.313 563.134 363.3C563.134 372.287 570.447 379.6 579.434 379.6Z" fill="#169A33"/>
<path d="M481.634 379.6C490.621 379.6 497.934 372.287 497.934 363.3C497.934 354.313 490.621 347 481.634 347C472.647 347 465.334 354.313 465.334 363.3C465.334 372.287 472.647 379.6 481.634 379.6Z" fill="#169A33"/>
<g clip-path="url(#clip1_21_233)">
<path d="M351.809 574.059C357.134 576.7 363.632 574.57 366.328 569.234C369.034 563.91 366.893 557.378 361.579 554.64C360.004 553.825 322.797 534.048 313.049 475.607C312.255 470.804 308.355 467.121 303.496 466.599C298.53 466.045 294.054 468.848 292.238 473.358C268.658 532.331 313.124 600.107 315.025 602.965C317.111 606.105 320.567 607.8 324.066 607.8C326.131 607.8 328.228 607.203 330.086 605.974C335.074 602.649 336.431 595.911 333.118 590.913C332.847 590.501 314.449 562.366 308.776 529.234C326.654 561.106 350.407 573.352 351.809 574.059Z" fill="black"/>
<path d="M402.264 596.716C408.144 595.542 411.968 589.815 410.795 583.937C409.611 578.058 403.949 574.234 398.005 575.418C376.196 579.776 334.934 603.519 334.934 662.134C334.934 704.666 343.844 734.17 350.723 750.578C326.935 755.197 313.2 770.16 313.2 792.534C313.2 817.723 336.053 836 367.534 836H378.4C396.417 836 407.501 822.493 408.696 820.961C412.391 816.234 411.554 809.399 406.817 805.704C402.09 801.998 395.255 802.857 391.571 807.573C391.516 807.65 385.996 814.268 378.401 814.268H367.534C351.332 814.268 334.934 806.803 334.934 792.534C334.934 787.155 334.934 770.8 367.534 770.8C371.522 770.8 375.173 768.595 377.074 765.084C378.976 761.574 378.781 757.293 376.607 753.956C376.401 753.642 356.666 722.682 356.666 662.133C356.667 607.028 400.46 597.107 402.264 596.716Z" fill="black"/>
<path d="M710.345 750.577C717.224 734.169 726.134 704.666 726.134 662.133C726.134 603.518 684.873 579.774 663.065 575.417C657.175 574.254 651.458 578.046 650.274 583.936C649.1 589.815 652.925 595.542 658.805 596.715C660.674 597.096 704.402 606.485 704.402 662.133C704.402 722.682 684.667 753.641 684.494 753.902C682.277 757.238 682.06 761.53 683.95 765.062C685.841 768.593 689.525 770.8 693.534 770.8C726.134 770.8 726.134 787.155 726.134 792.534C726.134 806.802 709.736 814.268 693.534 814.268H682.668C675.17 814.268 669.649 807.759 669.432 807.498C665.726 802.858 658.956 802.033 654.251 805.705C649.513 809.399 648.676 816.235 652.371 820.962C653.567 822.494 664.651 836.001 682.668 836.001H693.534C725.026 836.001 747.868 817.724 747.868 792.535C747.868 770.16 734.133 755.196 710.345 750.577Z" fill="black"/>
<path d="M597.56 749.893L617.316 631.327C618.304 625.404 614.306 619.809 608.384 618.819C602.44 617.841 596.866 621.83 595.888 627.741L575.665 749.068H574.001C567.992 749.068 563.135 753.936 563.135 759.934C563.135 765.932 567.992 770.8 574.001 770.8H584.868C617.468 770.8 617.468 787.155 617.468 792.534C617.468 806.802 601.07 814.268 584.868 814.268H574.001C556.028 814.268 541.401 799.641 541.401 781.668V629.534C541.401 623.536 536.544 618.668 530.535 618.668C524.526 618.668 519.669 623.536 519.669 629.534V781.668C519.669 799.641 505.042 814.268 487.069 814.268H476.203C460.001 814.268 443.603 806.803 443.603 792.534C443.603 787.155 443.603 770.8 476.203 770.8H487.069C493.078 770.8 497.935 765.932 497.935 759.934C497.935 753.936 493.078 749.068 487.069 749.068H485.406L465.184 627.741C464.217 621.83 458.62 617.841 452.687 618.819C446.765 619.809 442.766 625.404 443.755 631.327L463.512 749.893C437.192 753.534 421.87 768.899 421.87 792.534C421.87 817.723 444.723 836 476.204 836H487.07C504.826 836 520.615 827.438 530.536 814.235C540.455 827.438 556.245 836 574 836H584.866C616.358 836 639.2 817.723 639.2 792.534C639.2 768.899 623.878 753.534 597.56 749.893Z" fill="black"/>
<path d="M801.049 276.943C777.164 229.162 719.625 184 682.668 184C661.684 184 625.574 216.535 607.438 234.269C586.476 216.307 560.96 205.734 530.534 205.734C500.108 205.734 474.592 216.307 453.631 234.27C435.493 216.535 399.384 184 378.4 184C341.442 184 283.903 229.162 260.019 276.943C252.825 291.309 248 310.727 248 325.268C248 355.226 272.374 379.601 302.334 379.601C329.337 379.601 341.421 361.846 351.114 347.577C352.298 345.849 353.472 344.111 354.841 342.165L398.308 276.965C401.644 271.967 400.297 265.217 395.297 261.892C390.277 258.546 383.55 259.903 380.225 264.903L336.922 329.863C335.639 331.678 334.39 333.514 333.14 335.351C323.37 349.738 317.111 357.866 302.333 357.866C284.359 357.866 269.732 343.24 269.732 325.266C269.732 313.976 273.731 298.1 279.458 286.657C300.866 243.831 352.623 205.732 378.399 205.732C387.668 205.732 415.258 227.313 438.263 249.678C397.437 297.144 378.399 376.611 378.399 455.666C378.399 555.998 422.474 596.933 530.533 596.933C638.591 596.933 682.666 555.998 682.666 455.666C682.666 376.6 663.629 297.144 622.802 249.678C645.807 227.313 673.387 205.732 682.666 205.732C708.442 205.732 760.2 243.831 781.619 286.657C787.335 298.1 791.334 313.976 791.334 325.266C791.334 343.24 776.707 357.866 758.734 357.866C743.423 357.866 737.381 349.825 727.188 334.427L680.842 264.903C677.517 259.905 670.769 258.546 665.769 261.892C660.771 265.217 659.424 271.965 662.759 276.965L709.062 346.424C719.364 361.974 731.024 379.6 758.734 379.6C788.693 379.6 813.068 355.226 813.068 325.266C813.068 310.727 808.243 291.309 801.049 276.943ZM660.934 455.666C660.934 543.926 626.802 575.2 530.534 575.2C434.266 575.2 400.134 543.926 400.134 455.666C400.134 342.077 440.46 227.466 530.534 227.466C620.608 227.466 660.934 342.077 660.934 455.666Z" fill="black"/>
</g>
<g clip-path="url(#clip2_21_233)">
<path opacity="0.2" d="M752.25 68.5H973.5V289.75M973.5 732.25V953.5H752.25M309.75 953.5H88.5V732.25M88.5 289.75V68.5H309.75" stroke="black" stroke-width="60" stroke-linecap="round" stroke-linejoin="round"/>
<path d="M186.833 591H875.167" stroke="#DD014B" stroke-width="35" stroke-linecap="round" stroke-linejoin="round"/>
</g>
</g>
<defs>
<clipPath id="clip0_21_233">
<rect width="1062" height="1018" fill="white"/>
</clipPath>
<clipPath id="clip1_21_233">
<rect width="565" height="245" fill="white" transform="translate(248 591)"/>
</clipPath>
<clipPath id="clip2_21_233">
<rect width="1180" height="1180" fill="white" transform="translate(-59 -79)"/>
</clipPath>
</defs>
</svg>
